<svg xmlns="http://www.w3.org/2000/svg" viewBox="0 0 30 30" width="30" height="30">
<rect width="30" height="30"/>
<line x1="13" y1="13.75" x2="13" y2="19" vector-effect="non-scaling-stroke" stroke-width="2.5" stroke="rgb(0,0,0)" stroke-linejoin="round" stroke-linecap="round" stroke-miterlimit="4"/>
<line x1="17.5" y1="13.75" x2="17.5" y2="19" vector-effect="non-scaling-stroke" stroke-width="2.5" stroke="rgb(0,0,0)" stroke-linejoin="round" stroke-linecap="round" stroke-miterlimit="4"/>
<line x1="6" y1="9" x2="24" y2="9" vector-effect="non-scaling-stroke" stroke-width="2.5" stroke="rgb(0,0,0)" stroke-linejoin="round" stroke-linecap="round" stroke-miterlimit="4"/>
<path d=" M 9 9 L 15 9 L 21 9 L 21 20.786 C 21 22.561 19.657 24 18 24 L 12 24 C 10.343 24 9 22.561 9 20.786 L 9 9 Z " fill="none" vector-effect="non-scaling-stroke" stroke-width="2.5" stroke="rgb(0,0,0)" stroke-linejoin="round" stroke-linecap="round" stroke-miterlimit="4"/>
<path d=" M 12 6.375 C 12 5.063 12.895 4 14 4 L 16 4 C 17.105 4 18 5.063 18 6.375 L 18 8.75 L 12 8.75 L 12 6.375 Z " fill="none" vector-effect="non-scaling-stroke" stroke-width="2.5" stroke="rgb(0,0,0)" stroke-linejoin="round" stroke-linecap="round" stroke-miterlimit="4"/>

</svg>